# Exported from Wings 3D 0.98.36
mtllib 001.327.79.mtl
o cylinder2
#208 vertices, 194 faces
v 35.43377401 -0.28448668 4.31854219
v 32.62767023 -13.82274968 4.31854219
v 24.85429942 -25.25662435 4.31854219
v 13.29708684 -32.84540691 4.31854219
v -0.28448668 -35.43377401 4.31854219
v -13.82274968 -32.62767023 4.31854219
v -25.25662435 -24.85429942 4.31854219
v -32.84540691 -13.29708684 4.31854219
v -35.43377401 0.28448668 4.31854219
v -32.62767023 13.82274968 4.31854219
v -24.85429942 25.25662435 4.31854219
v -13.29708684 32.84540691 4.31854219
v 0.28448668 35.43377401 4.31854219
v 13.82274968 32.62767023 4.31854219
v 25.25662435 24.85429942 4.31854219
v 32.84540691 13.29708684 4.31854219
v 34.93770118 -0.28050387 2.6542193e-2
v 32.17088285 -13.62923119 2.6542193e-2
v 24.50633923 -24.90303161 2.6542193e-2
v 13.11092762 -32.38557121 2.6542193e-2
v -0.28050387 -34.93770118 2.6542193e-2
v -13.62923119 -32.17088285 2.6542193e-2
v -24.90303161 -24.50633923 2.6542193e-2
v -32.38557121 -13.11092762 2.6542193e-2
v -34.93770118 0.28050387 2.6542193e-2
v -32.17088285 13.62923119 2.6542193e-2
v -24.50633923 24.90303161 2.6542193e-2
v -13.11092762 32.38557121 2.6542193e-2
v 0.28050387 34.93770118 2.6542193e-2
v 13.62923119 32.17088285 2.6542193e-2
v 24.90303161 24.50633923 2.6542193e-2
v 32.38557121 13.11092762 2.6542193e-2
v 14.22566422 -6.02671886 9.62057969
v 15.44912547 -0.12403619 9.62057969
v 14.32059741 5.79752986 9.62057969
v 11.01188822 10.83647455 9.62057969
v 6.02671886 14.22566422 9.62057969
v 0.12403619 15.44912547 9.62057969
v -5.79752986 14.32059741 9.62057969
v -10.83647455 11.01188822 9.62057969
v -14.22566422 6.02671886 9.62057969
v -15.44912547 0.12403619 9.62057969
v -14.32059741 -5.79752986 9.62057969
v -11.01188822 -10.83647455 9.62057969
v -6.02671886 -14.22566422 9.62057969
v -0.12403619 -15.44912547 9.62057969
v 5.79752986 -14.32059741 9.62057969
v 10.83647455 -11.01188822 9.62057969
v 11.20982341 -4.74905446 12.49143902
v 12.17391087 -9.7740521e-2 12.49143902
v 11.28463076 4.56845353 12.49143902
v 8.67736791 8.53914194 12.49143902
v 4.74905446 11.20982341 12.49143902
v 9.7740521e-2 12.17391087 12.49143902
v -4.56845353 11.28463076 12.49143902
v -8.53914194 8.67736791 12.49143902
v -11.20982341 4.74905446 12.49143902
v -12.17391087 9.7740521e-2 12.49143902
v -11.28463076 -4.56845353 12.49143902
v -8.67736791 -8.53914194 12.49143902
v -4.74905446 -11.20982341 12.49143902
v -9.7740521e-2 -12.17391087 12.49143902
v 4.56845353 -11.28463076 12.49143902
v 8.53914194 -8.67736791 12.49143902
v 25.15932765 -10.65877784 27.98373394
v 27.32312556 -0.21936882 27.98373394
v 25.32722528 10.25343710 27.98373394
v 19.47548455 19.16525018 27.98373394
v 10.65877784 25.15932765 27.98373394
v 0.21936882 27.32312556 27.98373394
v -10.25343710 25.32722528 27.98373394
v -19.16525018 19.47548455 27.98373394
v -25.15932765 10.65877784 27.98373394
v -27.32312556 0.21936882 27.98373394
v -25.32722528 -10.25343710 27.98373394
v -19.47548455 -19.16525018 27.98373394
v -10.65877784 -25.15932765 27.98373394
v -0.21936882 -27.32312556 27.98373394
v 10.25343710 -25.32722528 27.98373394
v 19.16525018 -19.47548455 27.98373394
v 34.51859754 -14.62384319 46.52793338
v 37.48732826 -0.30097403 46.52793338
v 34.74895308 14.06771571 46.52793338
v 26.72036480 26.29472325 46.52793338
v 14.62384319 34.51859754 46.52793338
v 0.30097403 37.48732826 46.52793338
v -14.06771571 34.74895308 46.52793338
v -26.29472325 26.72036480 46.52793338
v -34.51859754 14.62384319 46.52793338
v -37.48732826 0.30097403 46.52793338
v -34.74895308 -14.06771571 46.52793338
v -26.72036480 -26.29472325 46.52793338
v -14.62384319 -34.51859754 46.52793338
v -0.30097403 -37.48732826 46.52793338
v 14.06771571 -34.74895308 46.52793338
v 26.29472325 -26.72036480 46.52793338
v 40.66290790 -17.22688728 68.27541941
v 44.16007269 -0.35454740 68.27541941
v 40.93426673 16.57176910 68.27541941
v 31.47658973 30.97518399 68.27541941
v 17.22688728 40.66290790 68.27541941
v 0.35454740 44.16007269 68.27541941
v -16.57176910 40.93426673 68.27541941
v -30.97518399 31.47658973 68.27541941
v -40.66290790 17.22688728 68.27541941
v -44.16007269 0.35454740 68.27541941
v -40.93426673 -16.57176910 68.27541941
v -31.47658973 -30.97518399 68.27541941
v -17.22688728 -40.66290790 68.27541941
v -0.35454740 -44.16007269 68.27541941
v 16.57176910 -40.93426673 68.27541941
v 30.97518399 -31.47658973 68.27541941
v 43.42798563 -18.39831562 86.62486074
v 47.16295764 -0.37865663 86.62486074
v 43.71779687 17.69864940 86.62486074
v 33.61699783 33.08149650 86.62486074
v 18.39831562 43.42798563 86.62486074
v 0.37865663 47.16295764 86.62486074
v -17.69864940 43.71779687 86.62486074
v -33.08149650 33.61699783 86.62486074
v -43.42798563 18.39831562 86.62486074
v -47.16295764 0.37865663 86.62486074
v -43.71779687 -17.69864940 86.62486074
v -33.61699783 -33.08149650 86.62486074
v -18.39831562 -43.42798563 86.62486074
v -0.37865663 -47.16295764 86.62486074
v 17.69864940 -43.71779687 86.62486074
v 33.08149650 -33.61699783 86.62486074
v 44.47025729 -18.83987519 98.54890847
v 48.29486862 -0.38774439 98.54890847
v 44.76702400 18.12341699 98.54890847
v 34.42380578 33.87545241 98.54890847
v 18.83987519 44.47025729 98.54890847
v 0.38774439 48.29486862 98.54890847
v -18.12341699 44.76702400 98.54890847
v -33.87545241 34.42380578 98.54890847
v -44.47025729 18.83987519 98.54890847
v -48.29486862 0.38774439 98.54890847
v -44.76702400 -18.12341699 98.54890847
v -34.42380578 -33.87545241 98.54890847
v -18.83987519 -44.47025729 98.54890847
v -0.38774439 -48.29486862 98.54890847
v 18.12341699 -44.76702400 98.54890847
v 33.87545241 -34.42380578 98.54890847
v 44.47025729 -18.83987519 112.38821776
v 48.29486862 -0.38774439 112.38821776
v 44.76702400 18.12341699 112.38821776
v 34.42380578 33.87545241 112.38821776
v 18.83987519 44.47025729 112.38821776
v 0.38774439 48.29486862 112.38821776
v -18.12341699 44.76702400 112.38821776
v -33.87545241 34.42380578 112.38821776
v -44.47025729 18.83987519 112.38821776
v -48.29486862 0.38774439 112.38821776
v -44.76702400 -18.12341699 112.38821776
v -34.42380578 -33.87545241 112.38821776
v -18.83987519 -44.47025729 112.38821776
v -0.38774439 -48.29486862 112.38821776
v 18.12341699 -44.76702400 112.38821776
v 33.87545241 -34.42380578 112.38821776
v 42.36058828 -17.94611151 112.20286987
v 46.00376005 -0.36934979 112.20286987
v 42.64327638 17.26364208 112.20286987
v 32.79074044 32.26840095 112.20286987
v 17.94611151 42.36058828 112.20286987
v 0.36934979 46.00376005 112.20286987
v -17.26364208 42.64327638 112.20286987
v -32.26840095 32.79074044 112.20286987
v -42.36058828 17.94611151 112.20286987
v -46.00376005 0.36934979 112.20286987
v -42.64327638 -17.26364208 112.20286987
v -32.79074044 -32.26840095 112.20286987
v -17.94611151 -42.36058828 112.20286987
v -0.36934979 -46.00376005 112.20286987
v 17.26364208 -42.64327638 112.20286987
v 32.26840095 -32.79074044 112.20286987
v 40.92032828 -17.33594372 69.88176781
v 44.43963221 -0.35679190 69.88176781
v 41.19340498 16.67667825 69.88176781
v 31.67585526 31.17127532 69.88176781
v 17.33594372 40.92032828 69.88176781
v 0.35679190 44.43963221 69.88176781
v -16.67667825 41.19340498 69.88176781
v -31.17127532 31.67585526 69.88176781
v -40.92032828 17.33594372 69.88176781
v -44.43963221 0.35679190 69.88176781
v -41.19340498 -16.67667825 69.88176781
v -31.67585526 -31.17127532 69.88176781
v -17.33594372 -40.92032828 69.88176781
v -0.35679190 -44.43963221 69.88176781
v 16.67667825 -41.19340498 69.88176781
v 31.17127532 -31.67585526 69.88176781
v 23.48826843 -9.95083170 29.78484045
v 25.50834889 -0.20479855 29.78484045
v 23.64501446 9.57241332 29.78484045
v 18.18194092 17.89231203 29.78484045
v 9.95083170 23.48826843 29.78484045
v 0.20479855 25.50834889 29.78484045
v -9.57241332 23.64501446 29.78484045
v -17.89231203 18.18194092 29.78484045
v -23.48826843 9.95083170 29.78484045
v -25.50834889 0.20479855 29.78484045
v -23.64501446 -9.57241332 29.78484045
v -18.18194092 -17.89231203 29.78484045
v -9.95083170 -23.48826843 29.78484045
v -0.20479855 -25.50834889 29.78484045
v 9.57241332 -23.64501446 29.78484045
v 17.89231203 -18.18194092 29.78484045
vn 0.82195074 -6.5991853e-3 0.56952035
vn 0.75685807 -0.32064378 0.56952035
vn 0.57654061 -0.58587327 0.56952035
vn 0.30845008 -0.76190886 0.56952035
vn -6.5991853e-3 -0.82195074 0.56952035
vn -0.32064378 -0.75685807 0.56952035
vn -0.58587327 -0.57654061 0.56952035
vn -0.76190886 -0.30845008 0.56952035
vn -0.82195074 6.5991853e-3 0.56952035
vn -0.75685807 0.32064378 0.56952035
vn -0.57654061 0.58587327 0.56952035
vn -0.30845008 0.76190886 0.56952035
vn 6.5991853e-3 0.82195074 0.56952035
vn 0.32064378 0.75685807 0.56952035
vn 0.58587327 0.57654061 0.56952035
vn 0.76190886 0.30845008 0.56952035
vn 0.84658104 -6.7969342e-3 -0.53221645
vn 0.77953782 -0.33025209 -0.53221645
vn 0.59381703 -0.60342935 -0.53221645
vn 0.31769299 -0.78473997 -0.53221645
vn -6.7969342e-3 -0.84658104 -0.53221645
vn -0.33025209 -0.77953782 -0.53221645
vn -0.60342935 -0.59381703 -0.53221645
vn -0.78473997 -0.31769299 -0.53221645
vn -0.84658104 6.7969342e-3 -0.53221645
vn -0.77953782 0.33025209 -0.53221645
vn -0.59381703 0.60342935 -0.53221645
vn -0.31769299 0.78473997 -0.53221645
vn 6.7969342e-3 0.84658104 -0.53221645
vn 0.33025209 0.77953782 -0.53221645
vn 0.60342935 0.59381703 -0.53221645
vn 0.78473997 0.31769299 -0.53221645
vn 0.43225126 -0.18312374 0.88296350
vn 0.46942652 -3.7688786e-3 0.88296350
vn 0.43513584 0.17615976 0.88296350
vn 0.33459967 0.32926967 0.88296350
vn 0.18312374 0.43225126 0.88296350
vn 3.7688786e-3 0.46942652 0.88296350
vn -0.17615976 0.43513584 0.88296350
vn -0.32926967 0.33459967 0.88296350
vn -0.43225126 0.18312374 0.88296350
vn -0.46942652 3.7688786e-3 0.88296350
vn -0.43513584 -0.17615976 0.88296350
vn -0.33459967 -0.32926967 0.88296350
vn -0.18312374 -0.43225126 0.88296350
vn -3.7688786e-3 -0.46942652 0.88296350
vn 0.17615976 -0.43513584 0.88296350
vn 0.32926967 -0.33459967 0.88296350
vn 0.92006887 -0.38978823 3.9222533e-2
vn 0.99919830 -8.0222504e-3 3.9222533e-2
vn 0.92620884 0.37496504 3.9222533e-2
vn 0.71221248 0.70086730 3.9222533e-2
vn 0.38978823 0.92006887 3.9222533e-2
vn 8.0222504e-3 0.99919830 3.9222533e-2
vn -0.37496504 0.92620884 3.9222533e-2
vn -0.70086730 0.71221248 3.9222533e-2
vn -0.92006887 0.38978823 3.9222533e-2
vn -0.99919830 8.0222504e-3 3.9222533e-2
vn -0.92620884 -0.37496504 3.9222533e-2
vn -0.71221248 -0.70086730 3.9222533e-2
vn -0.38978823 -0.92006887 3.9222533e-2
vn -8.0222504e-3 -0.99919830 3.9222533e-2
vn 0.37496504 -0.92620884 3.9222533e-2
vn 0.70086730 -0.71221248 3.9222533e-2
vn 0.73956684 -0.31331834 -0.59571177
vn 0.80317240 -6.4484199e-3 -0.59571177
vn 0.74450225 0.30140321 -0.59571177
vn 0.57248837 0.56336893 -0.59571177
vn 0.31331834 0.73956684 -0.59571177
vn 6.4484199e-3 0.80317240 -0.59571177
vn -0.30140321 0.74450225 -0.59571177
vn -0.56336893 0.57248837 -0.59571177
vn -0.73956684 0.31331834 -0.59571177
vn -0.80317240 6.4484199e-3 -0.59571177
vn -0.74450225 -0.30140321 -0.59571177
vn -0.57248837 -0.56336893 -0.59571177
vn -0.31331834 -0.73956684 -0.59571177
vn -6.4484199e-3 -0.80317240 -0.59571177
vn 0.30140321 -0.74450225 -0.59571177
vn 0.56336893 -0.57248837 -0.59571177
vn 0.84819891 -0.35934044 -0.38914400
vn 0.92114725 -7.3956030e-3 -0.38914400
vn 0.85385926 0.34567514 -0.38914400
vn 0.65657895 0.64611998 -0.38914400
vn 0.35934044 0.84819891 -0.38914400
vn 7.3956030e-3 0.92114725 -0.38914400
vn -0.34567514 0.85385926 -0.38914400
vn -0.64611998 0.65657895 -0.38914400
vn -0.84819891 0.35934044 -0.38914400
vn -0.92114725 7.3956030e-3 -0.38914400
vn -0.85385926 -0.34567514 -0.38914400
vn -0.65657895 -0.64611998 -0.38914400
vn -0.35934044 -0.84819891 -0.38914400
vn -7.3956030e-3 -0.92114725 -0.38914400
vn 0.34567514 -0.85385926 -0.38914400
vn 0.64611998 -0.65657895 -0.38914400
vn 0.89652863 -0.37981537 -0.22798400
vn 0.97363350 -7.8169987e-3 -0.22798400
vn 0.90251150 0.36537144 -0.22798400
vn 0.69399030 0.68293540 -0.22798400
vn 0.37981537 0.89652863 -0.22798400
vn 7.8169987e-3 0.97363350 -0.22798400
vn -0.36537144 0.90251150 -0.22798400
vn -0.68293540 0.69399030 -0.22798400
vn -0.89652863 0.37981537 -0.22798400
vn -0.97363350 7.8169987e-3 -0.22798400
vn -0.90251150 -0.36537144 -0.22798400
vn -0.69399030 -0.68293540 -0.22798400
vn -0.37981537 -0.89652863 -0.22798400
vn -7.8169987e-3 -0.97363350 -0.22798400
vn 0.36537144 -0.90251150 -0.22798400
vn 0.68293540 -0.69399030 -0.22798400
vn 0.91319322 -0.38687535 -0.12808437
vn 0.99173131 -7.9623004e-3 -0.12808437
vn 0.91928730 0.37216294 -0.12808437
vn 0.70689013 0.69562974 -0.12808437
vn 0.38687535 0.91319322 -0.12808437
vn 7.9623004e-3 0.99173131 -0.12808437
vn -0.37216294 0.91928730 -0.12808437
vn -0.69562974 0.70689013 -0.12808437
vn -0.91319322 0.38687535 -0.12808437
vn -0.99173131 7.9623004e-3 -0.12808437
vn -0.91928730 -0.37216294 -0.12808437
vn -0.70689013 -0.69562974 -0.12808437
vn -0.38687535 -0.91319322 -0.12808437
vn -7.9623004e-3 -0.99173131 -0.12808437
vn 0.37216294 -0.91928730 -0.12808437
vn 0.69562974 -0.70689013 -0.12808437
vn 0.91974640 -0.38965161 -4.7309446e-2
vn 0.99884809 -8.0194387e-3 -4.7309446e-2
vn 0.92588421 0.37483362 -4.7309446e-2
vn 0.71196286 0.70062166 -4.7309446e-2
vn 0.38965161 0.91974640 -4.7309446e-2
vn 8.0194387e-3 0.99884809 -4.7309446e-2
vn -0.37483362 0.92588421 -4.7309446e-2
vn -0.70062166 0.71196286 -4.7309446e-2
vn -0.91974640 0.38965161 -4.7309446e-2
vn -0.99884809 8.0194387e-3 -4.7309446e-2
vn -0.92588421 -0.37483362 -4.7309446e-2
vn -0.71196286 -0.70062166 -4.7309446e-2
vn -0.38965161 -0.91974640 -4.7309446e-2
vn -8.0194387e-3 -0.99884809 -4.7309446e-2
vn 0.37483362 -0.92588421 -4.7309446e-2
vn 0.70062166 -0.71196286 -4.7309446e-2
vn 0.61718213 -0.26146991 0.74210492
vn 0.67026214 -5.3813250e-3 0.74210492
vn 0.62130082 0.25152652 0.74210492
vn 0.47775208 0.47014173 0.74210492
vn 0.26146991 0.61718213 0.74210492
vn 5.3813250e-3 0.67026214 0.74210492
vn -0.25152652 0.62130082 0.74210492
vn -0.47014173 0.47775208 0.74210492
vn -0.61718213 0.26146991 0.74210492
vn -0.67026214 5.3813250e-3 0.74210492
vn -0.62130082 -0.25152652 0.74210492
vn -0.47775208 -0.47014173 0.74210492
vn -0.26146991 -0.61718213 0.74210492
vn -5.3813250e-3 -0.67026214 0.74210492
vn 0.25152652 -0.62130082 0.74210492
vn 0.47014173 -0.47775208 0.74210492
vn -0.65971284 0.27948810 0.69761406
vn -0.71645065 5.7521581e-3 0.69761406
vn -0.66411535 -0.26885949 0.69761406
vn -0.51067451 -0.50253973 0.69761406
vn -0.27948810 -0.65971284 0.69761406
vn -5.7521581e-3 -0.71645065 0.69761406
vn 0.26885949 -0.66411535 0.69761406
vn 0.50253973 -0.51067451 0.69761406
vn 0.65971284 -0.27948810 0.69761406
vn 0.71645065 -5.7521581e-3 0.69761406
vn 0.66411535 0.26885949 0.69761406
vn 0.51067451 0.50253973 0.69761406
vn 0.27948810 0.65971284 0.69761406
vn 5.7521581e-3 0.71645065 0.69761406
vn -0.26885949 0.66411535 0.69761406
vn -0.50253973 0.51067451 0.69761406
vn -0.89452007 0.37896445 0.23710712
vn -0.97145220 7.7994857e-3 0.23710712
vn -0.90048954 -0.36455288 0.23710712
vn -0.69243551 -0.68140537 0.23710712
vn -0.37896445 -0.89452007 0.23710712
vn -7.7994857e-3 -0.97145220 0.23710712
vn 0.36455288 -0.90048954 0.23710712
vn 0.68140537 -0.69243551 0.23710712
vn 0.89452007 -0.37896445 0.23710712
vn 0.97145220 -7.7994857e-3 0.23710712
vn 0.90048954 0.36455288 0.23710712
vn 0.69243551 0.68140537 0.23710712
vn 0.37896445 0.89452007 0.23710712
vn 7.7994857e-3 0.97145220 0.23710712
vn -0.36455288 0.90048954 0.23710712
vn -0.68140537 0.69243551 0.23710712
vn -0.64012875 0.27119127 0.71881186
vn -0.69518225 5.5814008e-3 0.71881186
vn -0.64440056 -0.26087819 0.71881186
vn -0.49551473 -0.48762144 0.71881186
vn -0.27119127 -0.64012875 0.71881186
vn -5.5814008e-3 -0.69518225 0.71881186
vn 0.26087819 -0.64440056 0.71881186
vn 0.48762144 -0.49551473 0.71881186
vn 0.64012875 -0.27119127 0.71881186
vn 0.69518225 -5.5814008e-3 0.71881186
vn 0.64440056 0.26087819 0.71881186
vn 0.49551473 0.48762144 0.71881186
vn 0.27119127 0.64012875 0.71881186
vn 5.5814008e-3 0.69518225 0.71881186
vn -0.26087819 0.64440056 0.71881186
vn -0.48762144 0.49551473 0.71881186
g cylinder2_default
usemtl default
f 1//1 17//17 32//32 16//16
f 1//1 34//34 33//33 2//2
f 2//2 18//18 17//17 1//1
f 2//2 33//33 48//48 3//3
f 3//3 19//19 18//18 2//2
f 3//3 48//48 47//47 4//4
f 4//4 20//20 19//19 3//3
f 4//4 47//47 46//46 5//5
f 5//5 21//21 20//20 4//4
f 5//5 46//46 45//45 6//6
f 6//6 22//22 21//21 5//5
f 6//6 45//45 44//44 7//7
f 7//7 23//23 22//22 6//6
f 7//7 44//44 43//43 8//8
f 8//8 24//24 23//23 7//7
f 8//8 43//43 42//42 9//9
f 9//9 25//25 24//24 8//8
f 9//9 42//42 41//41 10//10
f 10//10 26//26 25//25 9//9
f 10//10 41//41 40//40 11//11
f 11//11 27//27 26//26 10//10
f 11//11 40//40 39//39 12//12
f 12//12 28//28 27//27 11//11
f 12//12 39//39 38//38 13//13
f 13//13 29//29 28//28 12//12
f 13//13 38//38 37//37 14//14
f 14//14 30//30 29//29 13//13
f 14//14 37//37 36//36 15//15
f 15//15 31//31 30//30 14//14
f 15//15 36//36 35//35 16//16
f 16//16 32//32 31//31 15//15
f 16//16 35//35 34//34 1//1
f 18//18 19//19 20//20 21//21 22//22 23//23 24//24 25//25 26//26 27//27 28//28 29//29 30//30 31//31 32//32 17//17
f 33//33 49//49 64//64 48//48
f 34//34 50//50 49//49 33//33
f 35//35 51//51 50//50 34//34
f 36//36 52//52 51//51 35//35
f 37//37 53//53 52//52 36//36
f 38//38 54//54 53//53 37//37
f 39//39 55//55 54//54 38//38
f 40//40 56//56 55//55 39//39
f 41//41 57//57 56//56 40//40
f 42//42 58//58 57//57 41//41
f 43//43 59//59 58//58 42//42
f 44//44 60//60 59//59 43//43
f 45//45 61//61 60//60 44//44
f 46//46 62//62 61//61 45//45
f 47//47 63//63 62//62 46//46
f 48//48 64//64 63//63 47//47
f 49//49 65//65 80//80 64//64
f 50//50 66//66 65//65 49//49
f 51//51 67//67 66//66 50//50
f 52//52 68//68 67//67 51//51
f 53//53 69//69 68//68 52//52
f 54//54 70//70 69//69 53//53
f 55//55 71//71 70//70 54//54
f 56//56 72//72 71//71 55//55
f 57//57 73//73 72//72 56//56
f 58//58 74//74 73//73 57//57
f 59//59 75//75 74//74 58//58
f 60//60 76//76 75//75 59//59
f 61//61 77//77 76//76 60//60
f 62//62 78//78 77//77 61//61
f 63//63 79//79 78//78 62//62
f 64//64 80//80 79//79 63//63
f 65//65 81//81 96//96 80//80
f 66//66 82//82 81//81 65//65
f 67//67 83//83 82//82 66//66
f 68//68 84//84 83//83 67//67
f 69//69 85//85 84//84 68//68
f 70//70 86//86 85//85 69//69
f 71//71 87//87 86//86 70//70
f 72//72 88//88 87//87 71//71
f 73//73 89//89 88//88 72//72
f 74//74 90//90 89//89 73//73
f 75//75 91//91 90//90 74//74
f 76//76 92//92 91//91 75//75
f 77//77 93//93 92//92 76//76
f 78//78 94//94 93//93 77//77
f 79//79 95//95 94//94 78//78
f 80//80 96//96 95//95 79//79
f 81//81 97//97 112//112 96//96
f 82//82 98//98 97//97 81//81
f 83//83 99//99 98//98 82//82
f 84//84 100//100 99//99 83//83
f 85//85 101//101 100//100 84//84
f 86//86 102//102 101//101 85//85
f 87//87 103//103 102//102 86//86
f 88//88 104//104 103//103 87//87
f 89//89 105//105 104//104 88//88
f 90//90 106//106 105//105 89//89
f 91//91 107//107 106//106 90//90
f 92//92 108//108 107//107 91//91
f 93//93 109//109 108//108 92//92
f 94//94 110//110 109//109 93//93
f 95//95 111//111 110//110 94//94
f 96//96 112//112 111//111 95//95
f 97//97 113//113 128//128 112//112
f 98//98 114//114 113//113 97//97
f 99//99 115//115 114//114 98//98
f 100//100 116//116 115//115 99//99
f 101//101 117//117 116//116 100//100
f 102//102 118//118 117//117 101//101
f 103//103 119//119 118//118 102//102
f 104//104 120//120 119//119 103//103
f 105//105 121//121 120//120 104//104
f 106//106 122//122 121//121 105//105
f 107//107 123//123 122//122 106//106
f 108//108 124//124 123//123 107//107
f 109//109 125//125 124//124 108//108
f 110//110 126//126 125//125 109//109
f 111//111 127//127 126//126 110//110
f 112//112 128//128 127//127 111//111
f 113//113 129//129 144//144 128//128
f 114//114 130//130 129//129 113//113
f 115//115 131//131 130//130 114//114
f 116//116 132//132 131//131 115//115
f 117//117 133//133 132//132 116//116
f 118//118 134//134 133//133 117//117
f 119//119 135//135 134//134 118//118
f 120//120 136//136 135//135 119//119
f 121//121 137//137 136//136 120//120
f 122//122 138//138 137//137 121//121
f 123//123 139//139 138//138 122//122
f 124//124 140//140 139//139 123//123
f 125//125 141//141 140//140 124//124
f 126//126 142//142 141//141 125//125
f 127//127 143//143 142//142 126//126
f 128//128 144//144 143//143 127//127
f 129//129 145//145 160//160 144//144
f 130//130 146//146 145//145 129//129
f 131//131 147//147 146//146 130//130
f 132//132 148//148 147//147 131//131
f 133//133 149//149 148//148 132//132
f 134//134 150//150 149//149 133//133
f 135//135 151//151 150//150 134//134
f 136//136 152//152 151//151 135//135
f 137//137 153//153 152//152 136//136
f 138//138 154//154 153//153 137//137
f 139//139 155//155 154//154 138//138
f 140//140 156//156 155//155 139//139
f 141//141 157//157 156//156 140//140
f 142//142 158//158 157//157 141//141
f 143//143 159//159 158//158 142//142
f 144//144 160//160 159//159 143//143
f 145//145 161//161 176//176 160//160
f 146//146 162//162 161//161 145//145
f 147//147 163//163 162//162 146//146
f 148//148 164//164 163//163 147//147
f 149//149 165//165 164//164 148//148
f 150//150 166//166 165//165 149//149
f 151//151 167//167 166//166 150//150
f 152//152 168//168 167//167 151//151
f 153//153 169//169 168//168 152//152
f 154//154 170//170 169//169 153//153
f 155//155 171//171 170//170 154//154
f 156//156 172//172 171//171 155//155
f 157//157 173//173 172//172 156//156
f 158//158 174//174 173//173 157//157
f 159//159 175//175 174//174 158//158
f 160//160 176//176 175//175 159//159
f 161//161 177//177 192//192 176//176
f 162//162 178//178 177//177 161//161
f 163//163 179//179 178//178 162//162
f 164//164 180//180 179//179 163//163
f 165//165 181//181 180//180 164//164
f 166//166 182//182 181//181 165//165
f 167//167 183//183 182//182 166//166
f 168//168 184//184 183//183 167//167
f 169//169 185//185 184//184 168//168
f 170//170 186//186 185//185 169//169
f 171//171 187//187 186//186 170//170
f 172//172 188//188 187//187 171//171
f 173//173 189//189 188//188 172//172
f 174//174 190//190 189//189 173//173
f 175//175 191//191 190//190 174//174
f 176//176 192//192 191//191 175//175
f 177//177 193//193 208//208 192//192
f 178//178 194//194 193//193 177//177
f 179//179 195//195 194//194 178//178
f 180//180 196//196 195//195 179//179
f 181//181 197//197 196//196 180//180
f 182//182 198//198 197//197 181//181
f 183//183 199//199 198//198 182//182
f 184//184 200//200 199//199 183//183
f 185//185 201//201 200//200 184//184
f 186//186 202//202 201//201 185//185
f 187//187 203//203 202//202 186//186
f 188//188 204//204 203//203 187//187
f 189//189 205//205 204//204 188//188
f 190//190 206//206 205//205 189//189
f 191//191 207//207 206//206 190//190
f 192//192 208//208 207//207 191//191
f 194//194 195//195 196//196 197//197 198//198 199//199 200//200 201//201 202//202 203//203 204//204 205//205 206//206 207//207 208//208 193//193
